<?xml version="1.0" encoding="UTF-8" standalone="no"?>
<!-- Created with Inkscape (http://www.inkscape.org/) -->

<svg
   xmlns:dc="http://purl.org/dc/elements/1.1/"
   xmlns:cc="http://creativecommons.org/ns#"
   xmlns:rdf="http://www.w3.org/1999/02/22-rdf-syntax-ns#"
   xmlns:svg="http://www.w3.org/2000/svg"
   xmlns="http://www.w3.org/2000/svg"
   xmlns:sodipodi="http://sodipodi.sourceforge.net/DTD/sodipodi-0.dtd"
   xmlns:inkscape="http://www.inkscape.org/namespaces/inkscape"
   version="1.1"
   id="svg1131"
   xml:space="preserve"
   width="800"
   height="800"
   viewBox="0 0 800 800"
   sodipodi:docname="logo-design-element-#1.svg"
   inkscape:version="0.92.4 (5da689c313, 2019-01-14)"><metadata
     id="metadata1137"><rdf:RDF><cc:Work
         rdf:about=""><dc:format>image/svg+xml</dc:format><dc:type
           rdf:resource="http://purl.org/dc/dcmitype/StillImage" /><dc:title></dc:title></cc:Work></rdf:RDF></metadata><defs
     id="defs1135"><clipPath
       clipPathUnits="userSpaceOnUse"
       id="clipPath1147"><path
         d="M 0,600 H 600 V 0 H 0 Z"
         id="path1145"
         inkscape:connector-curvature="0" /></clipPath><linearGradient
       x1="0"
       y1="0"
       x2="1"
       y2="0"
       gradientUnits="userSpaceOnUse"
       gradientTransform="matrix(455.31354,-16.401123,-16.401123,-455.31354,84.366699,351.25781)"
       spreadMethod="pad"
       id="linearGradient1171"><stop
         style="stop-opacity:1;stop-color:#1aaeec"
         offset="0"
         id="stop1161" /><stop
         style="stop-opacity:1;stop-color:#4253a7"
         offset="0.297753"
         id="stop1163" /><stop
         style="stop-opacity:1;stop-color:#e70c8d"
         offset="0.646067"
         id="stop1165" /><stop
         style="stop-opacity:1;stop-color:#e33c47"
         offset="0.955056"
         id="stop1167" /><stop
         style="stop-opacity:1;stop-color:#e33c47"
         offset="1"
         id="stop1169" /></linearGradient></defs><sodipodi:namedview
     pagecolor="#ffffff"
     bordercolor="#666666"
     borderopacity="1"
     objecttolerance="10"
     gridtolerance="10"
     guidetolerance="10"
     inkscape:pageopacity="0"
     inkscape:pageshadow="2"
     inkscape:window-width="1920"
     inkscape:window-height="1018"
     id="namedview1133"
     showgrid="false"
     inkscape:zoom="0.86363793"
     inkscape:cx="449.15254"
     inkscape:cy="396.61017"
     inkscape:window-x="-8"
     inkscape:window-y="-8"
     inkscape:window-maximized="1"
     inkscape:current-layer="g1139" /><g
     id="g1139"
     inkscape:groupmode="layer"
     inkscape:label="logotype-element-1-publicdomainvectors.org"
     transform="matrix(1.3333333,0,0,-1.3333333,0,800)"><g
       id="g1141"><g
         id="g1143"
         clip-path="url(#clipPath1147)"><g
           id="g1149"><g
             id="g1151"><g
               id="g1157"><g
                 id="g1159"><path
                   d="m 384.665,374.581 c 25.955,-11.971 51.033,-23.217 73.751,-34.289 -20.412,-11.733 -41.661,-24.628 -63.203,-38.091 21.994,-4.876 45.679,-10.672 72.248,-17.567 27.742,20.614 51.309,44.916 72.551,59.426 -17.886,12.321 -48.659,30.123 -87.98,46.77 -24.947,-5.745 -47.033,-11.139 -67.367,-16.249 m -10.689,-20.094 c -12.44,-3.561 -24.392,-7.094 -35.761,-10.716 11.307,-7.328 23.756,-14.809 37.506,-22.385 10.874,6.291 21.747,12.292 32.545,18.045 -11.301,4.966 -22.775,9.938 -34.29,15.056 m -52.932,67.242 c 23.34,16.488 45.624,32.589 66.571,46.727 -0.047,-23.546 0.497,-48.395 1.381,-73.783 15.226,16.611 32.088,34.225 51.344,53.786 -3.984,34.332 -13.249,66.893 -15.19,92.543 -19.615,-9.328 -50.418,-27.076 -84.497,-52.809 -7.496,-24.476 -13.865,-46.298 -19.609,-66.464 m 12.06,-19.306 c -3.141,-12.552 -6.053,-24.669 -8.602,-36.325 11.997,6.128 24.698,13.166 38.138,21.286 -0.01,12.565 0.227,24.98 0.643,37.209 -9.948,-7.305 -19.99,-14.756 -30.179,-22.17 m -84.702,-12.217 c -2.61,28.456 -5.408,55.803 -7.179,81.014 20.365,-11.814 42.157,-23.767 64.586,-35.69 -6.772,21.488 -13.599,44.895 -20.91,71.353 -31.725,13.716 -64.552,21.976 -87.739,33.118 -1.727,-21.652 -1.758,-57.202 3.486,-99.579 17.45,-18.734 33.163,-35.163 47.756,-50.216 m 22.746,0.791 c 9.305,-8.997 18.341,-17.579 27.161,-25.613 0.69,13.456 0.945,27.977 0.633,43.674 -10.886,6.271 -21.519,12.688 -31.9,19.161 1.35,-12.27 2.782,-24.692 4.106,-37.222 m -31.769,-79.463 c -25.95,11.969 -51.033,23.217 -73.747,34.289 20.412,11.732 41.658,24.626 63.201,38.089 -21.996,4.878 -45.682,10.671 -72.248,17.568 -27.742,-20.616 -51.308,-44.918 -72.549,-59.426 17.886,-12.321 48.655,-30.122 87.977,-46.769 24.95,5.746 47.032,11.136 67.366,16.249 m 10.688,20.095 c 12.444,3.559 24.395,7.093 35.768,10.714 -11.311,7.324 -23.758,14.809 -37.512,22.385 -10.87,-6.29 -21.744,-12.291 -32.546,-18.045 11.307,-4.964 22.778,-9.94 34.29,-15.054 m 52.936,-67.246 c -23.341,-16.485 -45.625,-32.586 -66.573,-46.724 0.048,23.544 -0.494,48.394 -1.383,73.78 -15.222,-16.609 -32.082,-34.222 -51.339,-53.785 3.984,-34.33 13.245,-66.893 15.189,-92.543 19.612,9.329 50.417,27.077 84.496,52.808 7.495,24.478 13.866,46.302 19.61,66.464 m -12.06,19.305 c 3.142,12.555 6.052,24.672 8.601,36.328 -11.996,-6.127 -24.7,-13.166 -38.138,-21.287 0.011,-12.565 -0.227,-24.98 -0.646,-37.209 9.952,7.306 19.995,14.756 30.183,22.168 m 84.703,12.219 c 2.607,-28.457 5.41,-55.803 7.178,-81.012 -20.366,11.813 -42.158,23.767 -64.587,35.69 6.772,-21.488 13.602,-44.895 20.909,-71.353 31.723,-13.717 64.556,-21.975 87.739,-33.117 1.726,21.649 1.761,57.198 -3.484,99.576 -17.451,18.736 -33.166,35.163 -47.755,50.216 m -22.75,-0.788 c 1.325,-12.53 2.755,-24.954 4.11,-37.224 -10.384,6.474 -21.018,12.89 -31.902,19.163 -0.316,15.697 -0.056,30.219 0.633,43.672 8.821,-8.033 17.858,-16.618 27.159,-25.611"
                   style="fill:url(#linearGradient1171);stroke:none"
                   id="path1173"
                   inkscape:connector-curvature="0" /></g></g></g></g></g></g></g></svg>