<?xml version="1.0" encoding="UTF-8" standalone="no"?>
<!-- Created with Inkscape (http://www.inkscape.org/) -->

<svg
   xmlns:dc="http://purl.org/dc/elements/1.1/"
   xmlns:cc="http://creativecommons.org/ns#"
   xmlns:rdf="http://www.w3.org/1999/02/22-rdf-syntax-ns#"
   xmlns:svg="http://www.w3.org/2000/svg"
   xmlns="http://www.w3.org/2000/svg"
   xmlns:xlink="http://www.w3.org/1999/xlink"
   xmlns:sodipodi="http://sodipodi.sourceforge.net/DTD/sodipodi-0.dtd"
   xmlns:inkscape="http://www.inkscape.org/namespaces/inkscape"
   width="127.7191mm"
   height="127.7191mm"
   viewBox="0 0 452.548 452.54799"
   id="svg2"
   version="1.1"
   inkscape:version="0.91 r13725"
   sodipodi:docname="BackgroundPattern50.svg">
  <defs
     id="defs4">
    <linearGradient
       id="linearGradient4138">
      <stop
         style="stop-color:#000000;stop-opacity:1;"
         offset="0"
         id="stop4140" />
      <stop
         id="stop4146"
         offset="0.5"
         style="stop-color:#00ffff;stop-opacity:1;" />
      <stop
         style="stop-color:#000000;stop-opacity:1;"
         offset="1"
         id="stop4142" />
    </linearGradient>
    <linearGradient
       inkscape:collect="always"
       xlink:href="#linearGradient4138"
       id="linearGradient4144"
       x1="200"
       y1="842.36218"
       x2="220"
       y2="842.36218"
       gradientUnits="userSpaceOnUse"
       gradientTransform="translate(110.00001,-109.99997)" />
    <linearGradient
       inkscape:collect="always"
       xlink:href="#linearGradient4138"
       id="linearGradient4150"
       gradientUnits="userSpaceOnUse"
       x1="200"
       y1="842.36218"
       x2="220"
       y2="842.36218"
       gradientTransform="matrix(-1.7320508,1,-1,-1.7320508,1526.0929,1981.3763)" />
    <linearGradient
       inkscape:collect="always"
       xlink:href="#linearGradient4138"
       id="linearGradient4168"
       gradientUnits="userSpaceOnUse"
       gradientTransform="matrix(-1.5,2.5980762,-2.5980762,-1.5,2823.5212,1450.3094)"
       x1="200"
       y1="842.36218"
       x2="220"
       y2="842.36218" />
    <linearGradient
       inkscape:collect="always"
       xlink:href="#linearGradient4138"
       id="linearGradient4198"
       gradientUnits="userSpaceOnUse"
       gradientTransform="matrix(0,-4,4,0,-3049.4486,1572.3622)"
       x1="200"
       y1="842.36218"
       x2="220"
       y2="842.36218" />
    <linearGradient
       inkscape:collect="always"
       xlink:href="#linearGradient4138"
       id="linearGradient4216"
       gradientUnits="userSpaceOnUse"
       gradientTransform="matrix(-2.5,-4.330127,4.330127,-2.5,-2802.5343,3747.5937)"
       x1="200"
       y1="842.36218"
       x2="220"
       y2="842.36218" />
    <linearGradient
       inkscape:collect="always"
       xlink:href="#linearGradient4138"
       id="linearGradient4216-3"
       gradientUnits="userSpaceOnUse"
       gradientTransform="matrix(5.1961524,3,-3,5.1961524,1755.8941,-4274.6793)"
       x1="200"
       y1="842.36218"
       x2="220"
       y2="842.36218" />
    <linearGradient
       inkscape:collect="always"
       xlink:href="#linearGradient4138"
       id="linearGradient4216-3-6"
       gradientUnits="userSpaceOnUse"
       gradientTransform="matrix(-7,0,0,-7,1790,6628.8962)"
       x1="200"
       y1="842.36218"
       x2="220"
       y2="842.36218" />
    <linearGradient
       inkscape:collect="always"
       xlink:href="#linearGradient4138"
       id="linearGradient4272"
       gradientUnits="userSpaceOnUse"
       gradientTransform="matrix(6.9282032,-4,4,6.9282032,-4504.3707,-4263.6929)"
       x1="200"
       y1="842.36218"
       x2="220"
       y2="842.36218" />
    <linearGradient
       inkscape:collect="always"
       xlink:href="#linearGradient4138"
       id="linearGradient4276"
       gradientUnits="userSpaceOnUse"
       gradientTransform="matrix(4.5,-7.7942286,7.7942286,4.5,-7190.5619,-1421.4787)"
       x1="200"
       y1="842.36218"
       x2="220"
       y2="842.36218" />
    <linearGradient
       inkscape:collect="always"
       xlink:href="#linearGradient4138"
       id="linearGradient4280"
       gradientUnits="userSpaceOnUse"
       gradientTransform="matrix(0,10,-10,0,8743.6201,-1367.6378)"
       x1="200"
       y1="842.36218"
       x2="220"
       y2="842.36218" />
    <linearGradient
       inkscape:collect="always"
       xlink:href="#linearGradient4138"
       id="linearGradient4525"
       gradientUnits="userSpaceOnUse"
       gradientTransform="matrix(5.5,9.5262794,-9.5262794,5.5,7189.5759,-5901.1475)"
       x1="200"
       y1="842.36218"
       x2="220"
       y2="842.36218" />
    <linearGradient
       inkscape:collect="always"
       xlink:href="#linearGradient4138"
       id="linearGradient4685"
       gradientUnits="userSpaceOnUse"
       gradientTransform="matrix(-10.392305,-6,6,-10.392305,-2551.7879,10746.445)"
       x1="200"
       y1="842.36218"
       x2="220"
       y2="842.36218" />
    <linearGradient
       inkscape:collect="always"
       xlink:href="#linearGradient4138"
       id="linearGradient4689"
       gradientUnits="userSpaceOnUse"
       gradientTransform="matrix(13,0,0,13,-2410,-10218.344)"
       x1="200"
       y1="842.36218"
       x2="220"
       y2="842.36218" />
    <linearGradient
       inkscape:collect="always"
       xlink:href="#linearGradient4138"
       id="linearGradient4708"
       gradientUnits="userSpaceOnUse"
       gradientTransform="matrix(-12.124356,7,-7,-12.124356,8762.6486,9475.4586)"
       x1="200"
       y1="842.36218"
       x2="220"
       y2="842.36218" />
    <linearGradient
       inkscape:collect="always"
       xlink:href="#linearGradient4138"
       id="linearGradient4726"
       gradientUnits="userSpaceOnUse"
       gradientTransform="matrix(-7.5,12.990381,-12.990381,-7.5,12837.603,4322.097)"
       x1="200"
       y1="842.36218"
       x2="220"
       y2="842.36218" />
    <linearGradient
       inkscape:collect="always"
       xlink:href="#linearGradient4138"
       id="linearGradient4730"
       gradientUnits="userSpaceOnUse"
       gradientTransform="matrix(0,-16,16,0,-13157.792,4092.3622)"
       x1="200"
       y1="842.36218"
       x2="220"
       y2="842.36218" />
    <linearGradient
       inkscape:collect="always"
       xlink:href="#linearGradient4138"
       id="linearGradient4748"
       gradientUnits="userSpaceOnUse"
       gradientTransform="matrix(-8.5,-14.722432,14.722432,-8.5,-10296.617,10984.15)"
       x1="200"
       y1="842.36218"
       x2="220"
       y2="842.36218" />
    <linearGradient
       inkscape:collect="always"
       xlink:href="#linearGradient4138"
       id="linearGradient4752"
       gradientUnits="userSpaceOnUse"
       gradientTransform="matrix(15.588457,9,-9,15.588457,4627.6821,-14288.762)"
       x1="200"
       y1="842.36218"
       x2="220"
       y2="842.36218" />
    <linearGradient
       inkscape:collect="always"
       xlink:href="#linearGradient4138"
       id="linearGradient4756"
       gradientUnits="userSpaceOnUse"
       gradientTransform="matrix(19,0,0,19,-3670,-15272.516)"
       x1="200"
       y1="842.36218"
       x2="220"
       y2="842.36218" />
    <linearGradient
       inkscape:collect="always"
       xlink:href="#linearGradient4138"
       id="linearGradient4760"
       gradientUnits="userSpaceOnUse"
       gradientTransform="matrix(17.320508,-10,10,17.320508,-11740.927,-11757.776)"
       x1="200"
       y1="842.36218"
       x2="220"
       y2="842.36218" />
    <linearGradient
       inkscape:collect="always"
       xlink:href="#linearGradient4138"
       id="linearGradient4764"
       gradientUnits="userSpaceOnUse"
       gradientTransform="matrix(10.5,-18.186533,18.186533,10.5,-17204.645,-4293.267)"
       x1="200"
       y1="842.36218"
       x2="220"
       y2="842.36218" />
    <linearGradient
       inkscape:collect="always"
       xlink:href="#linearGradient4138"
       id="linearGradient5549"
       gradientUnits="userSpaceOnUse"
       gradientTransform="matrix(0,-22,22,0,-18211.964,5352.3622)"
       x1="200"
       y1="842.36218"
       x2="220"
       y2="842.36218" />
    <linearGradient
       inkscape:collect="always"
       xlink:href="#linearGradient4138"
       id="linearGradient5553"
       gradientUnits="userSpaceOnUse"
       gradientTransform="matrix(-11.5,-19.918584,19.918584,-11.5,-14043.659,14602.428)"
       x1="200"
       y1="842.36218"
       x2="220"
       y2="842.36218" />
    <linearGradient
       inkscape:collect="always"
       xlink:href="#linearGradient4138"
       id="linearGradient5557"
       gradientUnits="userSpaceOnUse"
       gradientTransform="matrix(-20.78461,-12,12,-20.78461,-5423.5759,20760.527)"
       x1="200"
       y1="842.36218"
       x2="220"
       y2="842.36218" />
    <linearGradient
       inkscape:collect="always"
       xlink:href="#linearGradient4138"
       id="linearGradient5561"
       gradientUnits="userSpaceOnUse"
       gradientTransform="matrix(25,0,0,25,-4930,-20326.688)"
       x1="200"
       y1="842.36218"
       x2="220"
       y2="842.36218" />
    <linearGradient
       inkscape:collect="always"
       xlink:href="#linearGradient4138"
       id="linearGradient5565"
       gradientUnits="userSpaceOnUse"
       gradientTransform="matrix(22.51666,-13,13,22.51666,-15359.205,-15504.817)"
       x1="200"
       y1="842.36218"
       x2="220"
       y2="842.36218" />
    <linearGradient
       inkscape:collect="always"
       xlink:href="#linearGradient4138"
       id="linearGradient5569"
       gradientUnits="userSpaceOnUse"
       gradientTransform="matrix(13.5,-23.382686,23.382686,13.5,-22211.686,-5729.161)"
       x1="200"
       y1="842.36218"
       x2="220"
       y2="842.36218" />
    <linearGradient
       inkscape:collect="always"
       xlink:href="#linearGradient4138"
       id="linearGradient5573"
       gradientUnits="userSpaceOnUse"
       gradientTransform="matrix(0,-28,28,0,-23266.136,6612.3622)"
       x1="200"
       y1="842.36218"
       x2="220"
       y2="842.36218" />
    <linearGradient
       inkscape:collect="always"
       xlink:href="#linearGradient4138"
       id="linearGradient5577"
       gradientUnits="userSpaceOnUse"
       gradientTransform="matrix(-14.5,-25.114737,25.114737,-14.5,-17790.7,18220.706)"
       x1="200"
       y1="842.36218"
       x2="220"
       y2="842.36218" />
    <linearGradient
       inkscape:collect="always"
       xlink:href="#linearGradient4138"
       id="linearGradient5581"
       gradientUnits="userSpaceOnUse"
       gradientTransform="matrix(-25.980762,-15,15,-25.980762,-6859.4699,25767.569)"
       x1="200"
       y1="842.36218"
       x2="220"
       y2="842.36218" />
    <linearGradient
       inkscape:collect="always"
       xlink:href="#linearGradient4138"
       id="linearGradient5585"
       gradientUnits="userSpaceOnUse"
       gradientTransform="matrix(31,0,0,31,-6190,-25380.86)"
       x1="200"
       y1="842.36218"
       x2="220"
       y2="842.36218" />
    <linearGradient
       inkscape:collect="always"
       xlink:href="#linearGradient4138"
       id="linearGradient5589"
       gradientUnits="userSpaceOnUse"
       gradientTransform="matrix(27.712813,-16,16,27.712813,-18977.483,-19251.858)"
       x1="200"
       y1="842.36218"
       x2="220"
       y2="842.36218" />
    <clipPath
       clipPathUnits="userSpaceOnUse"
       id="clipPath5660">
      <path
         style="fill:#ffff00;fill-opacity:1;stroke:none;stroke-width:2;stroke-miterlimit:4;stroke-dasharray:none"
         d="m 93.72582,506.0884 452.548,0 0,452.548 -452.548,0 z"
         id="path5662"
         inkscape:connector-curvature="0" />
    </clipPath>
  </defs>
  <sodipodi:namedview
     id="base"
     pagecolor="#ffffff"
     bordercolor="#666666"
     borderopacity="1.0"
     inkscape:pageopacity="0.0"
     inkscape:pageshadow="2"
     inkscape:zoom="1.480506"
     inkscape:cx="226.274"
     inkscape:cy="226.274"
     inkscape:document-units="px"
     inkscape:current-layer="layer1"
     showgrid="false"
     inkscape:window-width="1600"
     inkscape:window-height="837"
     inkscape:window-x="-8"
     inkscape:window-y="-8"
     inkscape:window-maximized="1"
     fit-margin-top="0"
     fit-margin-left="0"
     fit-margin-right="0"
     fit-margin-bottom="0" />
  <metadata
     id="metadata7">
    <rdf:RDF>
      <cc:Work
         rdf:about="">
        <dc:format>image/svg+xml</dc:format>
        <dc:type
           rdf:resource="http://purl.org/dc/dcmitype/StillImage" />
        <dc:title></dc:title>
      </cc:Work>
    </rdf:RDF>
  </metadata>
  <g
     inkscape:label="Layer 1"
     inkscape:groupmode="layer"
     id="layer1"
     transform="translate(-93.72582,-506.0884)">
    <g
       id="g5626"
       clip-path="url(#clipPath5660)">
      <path
         inkscape:connector-curvature="0"
         id="circle5587"
         d="M 597.12813,572.36218 A 320,320 0 0 1 479.99999,1009.4903 320,320 0 0 1 42.871871,892.36223 320,320 0 0 1 160,455.23405 320,320 0 0 1 597.12813,572.36218 Z"
         style="fill:url(#linearGradient5589);fill-opacity:1;stroke:none;stroke-width:2;stroke-miterlimit:4;stroke-dasharray:none" />
      <path
         inkscape:connector-curvature="0"
         id="circle5583"
         d="m 630.00001,732.36221 a 310,310 0 0 1 -310,309.99999 310,310 0 0 1 -310.000003,-309.99999 310,310 0 0 1 310.000003,-310 310,310 0 0 1 310,310 z"
         style="fill:url(#linearGradient5585);fill-opacity:1;stroke:none;stroke-width:2;stroke-miterlimit:4;stroke-dasharray:none" />
      <path
         inkscape:connector-curvature="0"
         id="circle5579"
         d="M 60.192368,582.36217 A 300,300 0 0 1 469.99999,472.55455 300,300 0 0 1 579.80761,882.36217 300,300 0 0 1 169.99999,992.16983 300,300 0 0 1 60.192368,582.36217 Z"
         style="fill:url(#linearGradient5581);fill-opacity:1;stroke:none;stroke-width:2;stroke-miterlimit:4;stroke-dasharray:none" />
      <path
         inkscape:connector-curvature="0"
         id="circle5575"
         d="M 175.00002,481.2148 A 290,290 0 0 1 571.14738,587.36217 290,290 0 0 1 465.00001,983.50953 290,290 0 0 1 68.85265,877.36217 290,290 0 0 1 175.00002,481.2148 Z"
         style="fill:url(#linearGradient5577);fill-opacity:1;stroke:none;stroke-width:2;stroke-miterlimit:4;stroke-dasharray:none" />
      <path
         inkscape:connector-curvature="0"
         id="circle5571"
         d="m 319.99999,452.36215 a 280,280 0 0 1 280,280 280,280 0 0 1 -280,279.99995 280,280 0 0 1 -279.999998,-279.99995 280,280 0 0 1 279.999998,-280 z"
         style="fill:url(#linearGradient5573);fill-opacity:1;stroke:none;stroke-width:2;stroke-miterlimit:4;stroke-dasharray:none" />
      <path
         inkscape:connector-curvature="0"
         id="circle5567"
         d="M 454.99999,498.53531 A 270,270 0 0 1 553.82685,867.36217 270,270 0 0 1 184.99999,966.18903 270,270 0 0 1 86.17313,597.36217 270,270 0 0 1 454.99999,498.53531 Z"
         style="fill:url(#linearGradient5569);fill-opacity:1;stroke:none;stroke-width:2;stroke-miterlimit:4;stroke-dasharray:none" />
      <path
         inkscape:connector-curvature="0"
         id="circle5563"
         d="M 545.1666,602.36218 A 260,260 0 0 1 449.99999,957.52873 260,260 0 0 1 94.833395,862.36218 260,260 0 0 1 190,507.19558 a 260,260 0 0 1 355.1666,95.1666 z"
         style="fill:url(#linearGradient5565);fill-opacity:1;stroke:none;stroke-width:2;stroke-miterlimit:4;stroke-dasharray:none" />
      <path
         inkscape:connector-curvature="0"
         id="circle5559"
         d="m 570.00001,732.36221 a 250,250 0 0 1 -250,250.00002 250,250 0 0 1 -250.000003,-250.00002 250,250 0 0 1 250.000003,-250 250,250 0 0 1 250,250 z"
         style="fill:url(#linearGradient5561);fill-opacity:1;stroke:none;stroke-width:2;stroke-miterlimit:4;stroke-dasharray:none" />
      <path
         inkscape:connector-curvature="0"
         id="circle5555"
         d="m 112.15389,612.36217 a 240,240 0 0 1 327.8461,-87.8461 240,240 0 0 1 87.84609,327.8461 240,240 0 0 1 -327.84609,87.84606 240,240 0 0 1 -87.8461,-327.84606 z"
         style="fill:url(#linearGradient5557);fill-opacity:1;stroke:none;stroke-width:2;stroke-miterlimit:4;stroke-dasharray:none" />
      <path
         inkscape:connector-curvature="0"
         id="circle5551"
         d="M 205.00002,533.17633 A 230,230 0 0 1 519.18585,617.36217 230,230 0 0 1 435.00001,931.54803 230,230 0 0 1 120.81417,847.36217 230,230 0 0 1 205.00002,533.17633 Z"
         style="fill:url(#linearGradient5553);fill-opacity:1;stroke:none;stroke-width:2;stroke-miterlimit:4;stroke-dasharray:none" />
      <path
         inkscape:connector-curvature="0"
         id="circle5547"
         d="m 319.99999,512.36215 a 220,220 0 0 1 220,220 220,220 0 0 1 -220,219.99998 220,220 0 0 1 -219.999998,-219.99998 220,220 0 0 1 219.999998,-220 z"
         style="fill:url(#linearGradient5549);fill-opacity:1;stroke:none;stroke-width:2;stroke-miterlimit:4;stroke-dasharray:none" />
      <path
         inkscape:connector-curvature="0"
         id="circle4762"
         d="M 424.99999,550.49683 A 210,210 0 0 1 501.86532,837.36217 210,210 0 0 1 214.99999,914.22753 210,210 0 0 1 138.13465,627.36217 210,210 0 0 1 424.99999,550.49683 Z"
         style="fill:url(#linearGradient4764);fill-opacity:1;stroke:none;stroke-width:2;stroke-miterlimit:4;stroke-dasharray:none" />
      <path
         inkscape:connector-curvature="0"
         id="circle4758"
         d="M 493.20508,632.36218 A 200,200 0 0 1 419.99999,905.56723 200,200 0 0 1 146.79492,832.36218 200,200 0 0 1 220,559.1571 200,200 0 0 1 493.20508,632.36218 Z"
         style="fill:url(#linearGradient4760);fill-opacity:1;stroke:none;stroke-width:2;stroke-miterlimit:4;stroke-dasharray:none" />
      <path
         inkscape:connector-curvature="0"
         id="circle4754"
         d="m 510.00001,732.36221 a 190,190 0 0 1 -190,190.00002 190,190 0 0 1 -190,-190.00002 190,190 0 0 1 190,-190 190,190 0 0 1 190,190 z"
         style="fill:url(#linearGradient4756);fill-opacity:1;stroke:none;stroke-width:2;stroke-miterlimit:4;stroke-dasharray:none" />
      <path
         inkscape:connector-curvature="0"
         id="circle4750"
         d="M 475.88456,822.36217 A 180,180 0 0 1 229.99999,888.24674 180,180 0 0 1 164.11542,642.36217 180,180 0 0 1 409.99999,576.47759 180,180 0 0 1 475.88456,822.36217 Z"
         style="fill:url(#linearGradient4752);fill-opacity:1;stroke:none;stroke-width:2;stroke-miterlimit:4;stroke-dasharray:none" />
      <path
         inkscape:connector-curvature="0"
         id="circle4746"
         d="m 235.00002,585.13785 a 170,170 0 0 1 232.22431,62.22432 170,170 0 0 1 -62.22432,232.2243 170,170 0 0 1 -232.22431,-62.2243 170,170 0 0 1 62.22432,-232.22432 z"
         style="fill:url(#linearGradient4748);fill-opacity:1;stroke:none;stroke-width:2;stroke-miterlimit:4;stroke-dasharray:none" />
      <path
         inkscape:connector-curvature="0"
         id="circle4728"
         d="m 319.99999,572.36215 a 160,160 0 0 1 160,160 160,160 0 0 1 -160,159.99998 160,160 0 0 1 -160,-159.99998 160,160 0 0 1 160,-160 z"
         style="fill:url(#linearGradient4730);fill-opacity:1;stroke:none;stroke-width:2;stroke-miterlimit:4;stroke-dasharray:none" />
      <path
         inkscape:connector-curvature="0"
         id="circle4724"
         d="M 244.99999,862.26598 A 150,150 0 0 1 190.09618,657.36217 150,150 0 0 1 394.99999,602.45836 150,150 0 0 1 449.9038,807.36217 150,150 0 0 1 244.99999,862.26598 Z"
         style="fill:url(#linearGradient4726);fill-opacity:1;stroke:none;stroke-width:2;stroke-miterlimit:4;stroke-dasharray:none" />
      <path
         inkscape:connector-curvature="0"
         id="circle4706"
         d="M 198.75644,802.36218 A 140,140 0 0 1 250,611.11862 140,140 0 0 1 441.24355,662.36218 140,140 0 0 1 390,853.60574 140,140 0 0 1 198.75644,802.36218 Z"
         style="fill:url(#linearGradient4708);fill-opacity:1;stroke:none;stroke-width:2;stroke-miterlimit:4;stroke-dasharray:none" />
      <path
         inkscape:connector-curvature="0"
         id="circle4687"
         d="m 450.00001,732.36221 a 130,130 0 0 1 -130,130 130,130 0 0 1 -130,-130 130,130 0 0 1 130,-130 130,130 0 0 1 130,130 z"
         style="fill:url(#linearGradient4689);fill-opacity:1;stroke:none;stroke-width:2;stroke-miterlimit:4;stroke-dasharray:none" />
      <path
         inkscape:connector-curvature="0"
         id="circle4683"
         d="M 216.07694,672.36217 A 120,120 0 0 1 379.99999,628.43912 120,120 0 0 1 423.92304,792.36217 120,120 0 0 1 259.99999,836.28521 120,120 0 0 1 216.07694,672.36217 Z"
         style="fill:url(#linearGradient4685);fill-opacity:1;stroke:none;stroke-width:2;stroke-miterlimit:4;stroke-dasharray:none" />
      <path
         inkscape:connector-curvature="0"
         id="circle4523"
         d="m 375.00002,827.62496 a 110,110 0 0 1 -150.2628,-40.26279 110,110 0 0 1 40.2628,-150.26279 110,110 0 0 1 150.26279,40.26279 110,110 0 0 1 -40.26279,150.26279 z"
         style="fill:url(#linearGradient4525);fill-opacity:1;stroke:none;stroke-width:2;stroke-miterlimit:4;stroke-dasharray:none" />
      <path
         inkscape:connector-curvature="0"
         id="circle4278"
         d="m 319.99999,832.36215 a 100,100 0 0 1 -100,-100 100,100 0 0 1 100,-100 100,100 0 0 1 100,100 100,100 0 0 1 -100,100 z"
         style="fill:url(#linearGradient4280);fill-opacity:1;stroke:none;stroke-width:2;stroke-miterlimit:4;stroke-dasharray:none" />
      <path
         inkscape:connector-curvature="0"
         id="circle4274"
         d="M 364.99999,654.41988 A 90,90 0 0 1 397.94227,777.36217 90,90 0 0 1 274.99999,810.30445 90,90 0 0 1 242.0577,687.36217 90,90 0 0 1 364.99999,654.41988 Z"
         style="fill:url(#linearGradient4276);fill-opacity:1;stroke:none;stroke-width:2;stroke-miterlimit:4;stroke-dasharray:none" />
      <path
         inkscape:connector-curvature="0"
         id="circle4270"
         d="M 389.28203,692.36218 A 80,80 0 0 1 360,801.64421 80,80 0 0 1 250.71797,772.36218 80,80 0 0 1 280,663.08015 80,80 0 0 1 389.28203,692.36218 Z"
         style="fill:url(#linearGradient4272);fill-opacity:1;stroke:none;stroke-width:2;stroke-miterlimit:4;stroke-dasharray:none" />
      <path
         inkscape:connector-curvature="0"
         id="circle4214-2-4"
         d="m 250.00001,732.36221 a 70,70 0 0 1 70,-70 70,70 0 0 1 70,70 70,70 0 0 1 -70,70 70,70 0 0 1 -70,-70 z"
         style="fill:url(#linearGradient4216-3-6);fill-opacity:1;stroke:none;stroke-width:2;stroke-miterlimit:4;stroke-dasharray:none" />
      <path
         inkscape:connector-curvature="0"
         id="circle4214-2"
         d="m 371.96151,762.36217 a 60,60 0 0 1 -81.96152,21.96152 60,60 0 0 1 -21.96153,-81.96152 60,60 0 0 1 81.96153,-21.96153 60,60 0 0 1 21.96152,81.96153 z"
         style="fill:url(#linearGradient4216-3);fill-opacity:1;stroke:none;stroke-width:2;stroke-miterlimit:4;stroke-dasharray:none" />
      <path
         inkscape:connector-curvature="0"
         id="circle4214"
         d="m 295.00002,689.0609 a 50,50 0 0 1 68.30127,18.30127 50,50 0 0 1 -18.30127,68.30127 50,50 0 0 1 -68.30127,-18.30127 50,50 0 0 1 18.30127,-68.30127 z"
         style="fill:url(#linearGradient4216);fill-opacity:1;stroke:none;stroke-width:2;stroke-miterlimit:4;stroke-dasharray:none" />
      <path
         inkscape:connector-curvature="0"
         id="circle4196"
         d="m 319.99999,692.36215 a 40,40 0 0 1 40,40 40,40 0 0 1 -40,40 40,40 0 0 1 -40,-40 40,40 0 0 1 40,-40 z"
         style="fill:url(#linearGradient4198);fill-opacity:1;stroke:none;stroke-width:2;stroke-miterlimit:4;stroke-dasharray:none" />
      <path
         inkscape:connector-curvature="0"
         id="circle4166"
         d="m 304.99999,758.34293 a 30,30 0 0 1 -10.98076,-40.98076 30,30 0 0 1 40.98076,-10.98077 30,30 0 0 1 10.98076,40.98077 30,30 0 0 1 -40.98076,10.98076 z"
         style="fill:url(#linearGradient4168);fill-opacity:1;stroke:none;stroke-width:2;stroke-miterlimit:4;stroke-dasharray:none" />
      <path
         inkscape:connector-curvature="0"
         id="circle4148"
         d="M 302.67949,742.36218 A 20,20 0 0 1 310,715.04167 20,20 0 0 1 337.32051,722.36218 20,20 0 0 1 330,749.68269 20,20 0 0 1 302.67949,742.36218 Z"
         style="fill:url(#linearGradient4150);fill-opacity:1;stroke:none;stroke-width:2;stroke-miterlimit:4;stroke-dasharray:none" />
      <path
         inkscape:connector-curvature="0"
         id="path4136"
         d="m 330.00001,732.36221 a 10,10 0 0 1 -10,10 10,10 0 0 1 -10,-10 10,10 0 0 1 10,-10 10,10 0 0 1 10,10 z"
         style="fill:url(#linearGradient4144);fill-opacity:1;stroke:none;stroke-width:2;stroke-miterlimit:4;stroke-dasharray:none" />
    </g>
  </g>
</svg>
